<?xml version="1.0" standalone="no"?>
<!DOCTYPE svg PUBLIC "-//W3C//DTD SVG 20010904//EN"
 "http://www.w3.org/TR/2001/REC-SVG-20010904/DTD/svg10.dtd">
<svg version="1.0" xmlns="http://www.w3.org/2000/svg"
 width="50.000000pt" height="50.000000pt" viewBox="0 0 50.000000 50.000000"
 preserveAspectRatio="xMidYMid meet">

<g transform="translate(0.000000,50.000000) scale(0.100000,-0.100000)"
fill="#000000" stroke="none">
<path d="M167 444 c-4 -4 -7 -18 -7 -30 0 -22 -4 -23 -77 -26 l-78 -3 0 -165
0 -165 245 0 245 0 0 165 0 165 -77 3 c-75 3 -77 3 -80 30 -3 27 -4 27 -83 30
-45 1 -84 0 -88 -4z m153 -34 c0 -18 -7 -20 -70 -20 -63 0 -70 2 -70 20 0 18
7 20 70 20 63 0 70 -2 70 -20z m160 -70 c0 -23 -5 -30 -19 -30 -11 0 -23 4
-26 10 -3 6 -19 10 -35 10 -16 0 -32 -4 -35 -10 -8 -13 -222 -13 -230 0 -3 6
-19 10 -35 10 -16 0 -32 -4 -35 -10 -3 -5 -15 -10 -26 -10 -14 0 -19 7 -19 30
l0 30 230 0 230 0 0 -30z m-360 -40 c0 -5 -9 -10 -20 -10 -11 0 -20 5 -20 10
0 6 9 10 20 10 11 0 20 -4 20 -10z m300 0 c0 -5 -9 -10 -20 -10 -11 0 -20 5
-20 10 0 6 9 10 20 10 11 0 20 -4 20 -10z m-355 -20 c3 -5 19 -10 35 -10 16 0
32 5 35 10 8 13 222 13 230 0 8 -13 62 -13 70 0 3 6 15 10 26 10 18 0 19 -8
19 -110 l0 -110 -230 0 -230 0 0 110 c0 102 1 110 19 110 11 0 23 -4 26 -10z"/>
<path d="M230 230 c0 -13 -7 -20 -20 -20 -13 0 -20 -7 -20 -20 0 -13 7 -20 20
-20 13 0 20 -7 20 -20 0 -13 7 -20 20 -20 13 0 20 7 20 20 0 13 7 20 20 20 13
0 20 7 20 20 0 13 -7 20 -20 20 -13 0 -20 7 -20 20 0 13 -7 20 -20 20 -13 0
-20 -7 -20 -20z"/>
</g>
</svg>
