<?xml version="1.0" standalone="no"?>
<!DOCTYPE svg PUBLIC "-//W3C//DTD SVG 20010904//EN"
 "http://www.w3.org/TR/2001/REC-SVG-20010904/DTD/svg10.dtd">
<svg version="1.0" xmlns="http://www.w3.org/2000/svg"
 width="50.000000pt" height="50.000000pt" viewBox="0 0 50.000000 50.000000"
 preserveAspectRatio="xMidYMid meet">

<g transform="translate(0.000000,50.000000) scale(0.100000,-0.100000)"
fill="#000000" stroke="none">
<path d="M84 465 c-27 -19 -57 -35 -67 -35 -10 0 -17 -6 -15 -12 6 -19 69 -48
105 -48 40 0 97 -65 81 -93 -6 -12 -5 -26 6 -47 8 -17 10 -32 5 -36 -12 -7
-12 -51 0 -58 5 -3 7 -15 4 -26 -3 -11 -1 -26 5 -33 6 -7 9 -23 6 -34 -6 -23
24 -47 48 -38 13 5 35 69 38 110 1 11 3 43 6 70 3 28 6 67 7 87 1 20 13 51 25
68 18 24 30 30 60 30 38 0 102 31 102 50 0 5 -8 10 -18 10 -9 0 -39 16 -66 35
-69 49 -116 44 -116 -12 0 -13 -4 -23 -8 -23 -4 0 -8 12 -7 26 0 15 -8 32 -17
38 -25 16 -53 -4 -53 -38 1 -14 -3 -26 -7 -26 -4 0 -8 10 -8 23 0 56 -47 61
-116 12z m91 -15 c0 -16 8 -28 23 -35 28 -13 28 -17 -5 -33 -18 -8 -30 -9 -37
-2 -5 5 -24 10 -41 10 -36 0 -75 10 -75 19 1 11 105 71 120 68 9 -1 15 -13 15
-27z m91 19 c10 -17 -13 -36 -27 -22 -12 12 -4 33 11 33 5 0 12 -5 16 -11z
m141 -21 c29 -18 53 -36 53 -39 0 -9 -39 -19 -75 -19 -17 0 -36 -5 -41 -10 -7
-7 -19 -6 -37 2 -33 16 -33 20 -4 33 12 6 21 17 19 24 -4 21 6 41 20 41 7 0
37 -15 65 -32z m-147 -68 c0 -22 -4 -40 -10 -40 -5 0 -10 18 -10 40 0 22 5 40
10 40 6 0 10 -18 10 -40z m38 -110 c1 -9 -4 -24 -12 -35 -14 -19 -14 -18 -13
15 2 30 -2 37 -32 52 -19 9 -39 22 -45 29 -6 6 14 -1 44 -17 30 -16 56 -36 58
-44z m12 60 c0 -5 -5 -10 -11 -10 -5 0 -7 5 -4 10 3 6 8 10 11 10 2 0 4 -4 4
-10z m-87 -64 c-4 -18 4 -30 31 -52 34 -27 50 -74 26 -74 -5 0 -7 7 -3 16 4
11 -8 29 -36 54 -37 34 -41 42 -31 59 14 27 18 26 13 -3z m37 -5 c0 -6 -4 -13
-10 -16 -5 -3 -10 1 -10 9 0 9 5 16 10 16 6 0 10 -4 10 -9z m-34 -86 c-3 -9 6
-26 24 -42 29 -26 39 -56 21 -67 -5 -4 -7 4 -4 15 5 17 -2 29 -27 49 -23 18
-31 32 -27 44 4 9 9 16 13 16 3 0 4 -7 0 -15z"/>
</g>
</svg>
